<svg width="64" height="64" viewBox="0 0 64 64" fill="none" xmlns="http://www.w3.org/2000/svg">
  <rect width="64" height="64" rx="16" fill="#020617"/>
  
  <path 
    fill-rule="evenodd" 
    clip-rule="evenodd" 
    d="M14 18.5C14 16.2909 15.7909 14.5 18 14.5H24.3431C25.404 14.5 26.4214 14.9214 27.1716 15.6716L43.1716 31.6716C44.7337 33.2337 44.7337 35.7663 43.1716 37.3284L27.1716 53.3284C26.4214 54.0786 25.404 54.5 24.3431 54.5H18C15.7909 54.5 14 52.7091 14 50.5V18.5ZM34 32L21.5 19.5H19.5V49.5H21.5L34 37V32Z" 
    fill="#10b981"
  />
  <path 
    d="M34 32L46.5 19.5H48.5V49.5H46.5L34 37V32Z" 
    fill="#34d399"
  />
</svg>